<svg width="163" height="29" viewBox="0 0 163 29" fill="none" xmlns="http://www.w3.org/2000/svg">
<path d="M12.6328 19.3189C12.5095 19.3189 12.3452 19.2573 12.1398 19.134L0.893537 11.4927C0.585421 11.2873 0.359469 11.0819 0.215681 10.8765C0.0718939 10.6711 0 10.4246 0 10.137V9.15105C0 8.86348 0.0616233 8.62726 0.18487 8.44239C0.328657 8.25752 0.56488 8.0521 0.893537 7.82615L12.1398 0.184869C12.3452 0.0616228 12.5095 0 12.6328 0C12.8176 0 12.9717 0.0616228 13.0949 0.184869C13.2182 0.287574 13.2798 0.441633 13.2798 0.647045V4.12876C13.2798 4.43687 13.1976 4.68337 13.0333 4.86824C12.8895 5.03257 12.6841 5.1969 12.4171 5.36122L5.85421 9.64404L12.4171 13.9577C12.7047 14.1631 12.9203 14.3479 13.0641 14.5123C13.2079 14.6561 13.2798 14.8717 13.2798 15.1593V18.6718C13.2798 18.8567 13.2182 19.0108 13.0949 19.134C12.9717 19.2573 12.8176 19.3189 12.6328 19.3189Z" fill="#D77CE6"/>
<path d="M13.2955 9.12642C13.4187 9.12642 13.583 9.18804 13.7884 9.31129L25.0347 16.9526C25.3428 17.158 25.5688 17.3634 25.7125 17.5688C25.8563 17.7742 25.9282 18.0207 25.9282 18.3083L25.9282 19.2943C25.9282 19.5818 25.8666 19.8181 25.7434 20.0029C25.5996 20.1878 25.3633 20.3932 25.0347 20.6192L13.7884 28.2604C13.583 28.3837 13.4187 28.4453 13.2955 28.4453C13.1106 28.4453 12.9565 28.3837 12.8333 28.2604C12.71 28.1577 12.6484 28.0037 12.6484 27.7983L12.6484 24.3166C12.6484 24.0084 12.7306 23.7619 12.8949 23.5771C13.0387 23.4127 13.2441 23.2484 13.5111 23.0841L20.074 18.8013L13.5111 14.4876C13.2236 14.2822 13.0079 14.0974 12.8641 13.933C12.7203 13.7892 12.6484 13.5736 12.6484 13.286L12.6484 9.77347C12.6484 9.5886 12.71 9.43454 12.8333 9.31129C12.9565 9.18804 13.1106 9.12642 13.2955 9.12642Z" fill="#6C38CC"/>
<path d="M44.7028 6.66715C45.7944 6.66715 46.7393 6.84909 47.5374 7.21296C48.3474 7.57683 48.9695 8.09329 49.4038 8.76234C49.838 9.4314 50.0552 10.2237 50.0552 11.1392C50.0552 12.043 49.838 12.8353 49.4038 13.5161C48.9695 14.1852 48.3474 14.7017 47.5374 15.0655C46.7393 15.4177 45.7944 15.5937 44.7028 15.5937H42.2202V18.9918H39.368V6.66715H44.7028ZM44.5443 13.2696C45.4012 13.2696 46.0526 13.0877 46.4987 12.7238C46.9447 12.3482 47.1677 11.82 47.1677 11.1392C47.1677 10.4467 46.9447 9.91851 46.4987 9.55464C46.0526 9.17903 45.4012 8.99123 44.5443 8.99123H42.2202V13.2696H44.5443Z" fill="#FAFAFA"/>
<path d="M61.6126 9.51943V18.9918H59.0068V17.865C58.6429 18.2758 58.2086 18.5927 57.7039 18.8157C57.1992 19.027 56.6534 19.1327 56.0665 19.1327C54.8223 19.1327 53.8363 18.7747 53.1086 18.0587C52.3808 17.3426 52.017 16.2804 52.017 14.8718V9.51943H54.7636V14.4669C54.7636 15.9928 55.4033 16.7558 56.6827 16.7558C57.34 16.7558 57.8682 16.5445 58.2673 16.1219C58.6664 15.6876 58.8659 15.0479 58.8659 14.2028V9.51943H61.6126Z" fill="#FAFAFA"/>
<path d="M66.7805 10.7695C67.1092 10.3117 67.5494 9.96546 68.101 9.73071C68.6645 9.49595 69.31 9.37858 70.0378 9.37858V11.9139C69.7326 11.8905 69.5272 11.8787 69.4215 11.8787C68.6351 11.8787 68.0189 12.1017 67.5728 12.5478C67.1268 12.9821 66.9038 13.6394 66.9038 14.5197V18.9918H64.1572V9.51943H66.7805V10.7695Z" fill="#FAFAFA"/>
<path d="M77.2698 9.37858C78.1502 9.37858 78.9483 9.58399 79.6643 9.99481C80.3921 10.3939 80.9614 10.9632 81.3722 11.7027C81.783 12.4304 81.9884 13.2814 81.9884 14.2556C81.9884 15.2299 81.783 16.0867 81.3722 16.8262C80.9614 17.5539 80.3921 18.1232 79.6643 18.534C78.9483 18.9331 78.1502 19.1327 77.2698 19.1327C76.0609 19.1327 75.1101 18.7512 74.4176 17.9882V22.4075H71.6709V9.51943H74.2943V10.611C74.9751 9.7894 75.9669 9.37858 77.2698 9.37858ZM76.7945 16.879C77.4987 16.879 78.0739 16.6443 78.5199 16.1747C78.9777 15.6935 79.2066 15.0538 79.2066 14.2556C79.2066 13.4574 78.9777 12.8236 78.5199 12.3541C78.0739 11.8729 77.4987 11.6322 76.7945 11.6322C76.0902 11.6322 75.5092 11.8729 75.0514 12.3541C74.6054 12.8236 74.3824 13.4574 74.3824 14.2556C74.3824 15.0538 74.6054 15.6935 75.0514 16.1747C75.5092 16.6443 76.0902 16.879 76.7945 16.879Z" fill="#FAFAFA"/>
<path d="M87.2252 19.1327C86.157 19.1327 85.3236 18.851 84.725 18.2875C84.1264 17.7124 83.8271 16.9025 83.8271 15.8578V5.92767H86.5737V15.6994C86.5737 16.0984 86.6735 16.4095 86.873 16.6325C87.0843 16.8438 87.3778 16.9494 87.7534 16.9494C87.8942 16.9494 88.0351 16.9318 88.1759 16.8966C88.3285 16.8614 88.4459 16.8203 88.5281 16.7734L88.6513 18.9038C88.1935 19.0564 87.7182 19.1327 87.2252 19.1327Z" fill="#FAFAFA"/>
<path d="M94.5992 16.9318C95.0922 16.9318 95.5265 16.8614 95.9021 16.7205C96.2894 16.568 96.6474 16.3332 96.9761 16.0163L98.4374 17.6009C97.5454 18.6221 96.2425 19.1327 94.5288 19.1327C93.4606 19.1327 92.5157 18.9272 91.6941 18.5164C90.8724 18.0939 90.2386 17.5128 89.7926 16.7734C89.3465 16.0339 89.1235 15.1946 89.1235 14.2556C89.1235 13.3283 89.3407 12.495 89.775 11.7555C90.221 11.0043 90.8255 10.4232 91.5884 10.0124C92.3631 9.58986 93.2317 9.37858 94.1942 9.37858C95.098 9.37858 95.9197 9.57225 96.6592 9.9596C97.3986 10.3352 97.9855 10.8869 98.4198 11.6146C98.8659 12.3306 99.0889 13.1816 99.0889 14.1676L92.0814 15.5233C92.281 15.9928 92.592 16.3449 93.0146 16.5797C93.4489 16.8144 93.9771 16.9318 94.5992 16.9318ZM94.1942 11.4562C93.5017 11.4562 92.9383 11.6792 92.504 12.1252C92.0697 12.5712 91.8408 13.1875 91.8173 13.9739L96.4303 13.076C96.3012 12.583 96.0371 12.1898 95.638 11.8963C95.2389 11.6029 94.7576 11.4562 94.1942 11.4562Z" fill="#FAFAFA"/>
<path d="M105.178 19.2031C104.204 19.2031 103.259 19.074 102.344 18.8157C101.44 18.5458 100.712 18.1995 100.16 17.7769L101.129 15.6289C101.657 16.0163 102.285 16.3273 103.013 16.5621C103.74 16.7968 104.468 16.9142 105.196 16.9142C106.006 16.9142 106.604 16.7968 106.992 16.5621C107.379 16.3156 107.573 15.9928 107.573 15.5937C107.573 15.3003 107.455 15.0597 107.221 14.8718C106.998 14.6723 106.704 14.5138 106.34 14.3965C105.988 14.2791 105.507 14.15 104.897 14.0091C103.958 13.7861 103.189 13.5631 102.59 13.3401C101.992 13.1171 101.475 12.7591 101.041 12.2661C100.618 11.7731 100.407 11.1158 100.407 10.2941C100.407 9.57812 100.601 8.93254 100.988 8.35739C101.375 7.7705 101.956 7.30686 102.731 6.96647C103.517 6.62607 104.474 6.45587 105.601 6.45587C106.387 6.45587 107.156 6.54978 107.907 6.73758C108.659 6.92538 109.316 7.19535 109.879 7.54748L108.999 9.7131C107.86 9.06752 106.722 8.74474 105.583 8.74474C104.785 8.74474 104.192 8.87385 103.805 9.13208C103.429 9.39031 103.242 9.73071 103.242 10.1533C103.242 10.5758 103.459 10.8927 103.893 11.104C104.339 11.3036 105.014 11.5031 105.918 11.7027C106.857 11.9257 107.626 12.1487 108.224 12.3717C108.823 12.5947 109.333 12.9469 109.756 13.4281C110.19 13.9094 110.407 14.5608 110.407 15.3824C110.407 16.0867 110.208 16.7323 109.809 17.3192C109.422 17.8943 108.835 18.3521 108.048 18.6925C107.262 19.0329 106.305 19.2031 105.178 19.2031Z" fill="#FAFAFA"/>
<path d="M116.741 19.1327C115.731 19.1327 114.821 18.9272 114.011 18.5164C113.213 18.0939 112.585 17.5128 112.128 16.7734C111.682 16.0339 111.459 15.1946 111.459 14.2556C111.459 13.3166 111.682 12.4773 112.128 11.7379C112.585 10.9984 113.213 10.4232 114.011 10.0124C114.821 9.58986 115.731 9.37858 116.741 9.37858C117.738 9.37858 118.607 9.58986 119.346 10.0124C120.098 10.4232 120.643 11.016 120.984 11.7907L118.853 12.9351C118.36 12.0665 117.65 11.6322 116.723 11.6322C116.007 11.6322 115.414 11.867 114.945 12.3365C114.475 12.806 114.24 13.4457 114.24 14.2556C114.24 15.0655 114.475 15.7052 114.945 16.1747C115.414 16.6443 116.007 16.879 116.723 16.879C117.662 16.879 118.372 16.4447 118.853 15.5761L120.984 16.7382C120.643 17.4894 120.098 18.0763 119.346 18.4988C118.607 18.9214 117.738 19.1327 116.741 19.1327Z" fill="#FAFAFA"/>
<path d="M128.254 9.37858C129.428 9.37858 130.372 9.73071 131.088 10.435C131.816 11.1392 132.18 12.1839 132.18 13.569V18.9918H129.433V13.9915C129.433 13.2403 129.269 12.6828 128.94 12.3189C128.612 11.9433 128.136 11.7555 127.514 11.7555C126.822 11.7555 126.27 11.9726 125.859 12.4069C125.448 12.8295 125.243 13.4633 125.243 14.3084V18.9918H122.496V5.92767H125.243V10.5054C125.607 10.1415 126.047 9.86569 126.563 9.67789C127.08 9.47835 127.643 9.37858 128.254 9.37858Z" fill="#FAFAFA"/>
<path d="M139.28 19.1327C138.282 19.1327 137.385 18.9272 136.586 18.5164C135.8 18.0939 135.184 17.5128 134.738 16.7734C134.292 16.0339 134.069 15.1946 134.069 14.2556C134.069 13.3166 134.292 12.4773 134.738 11.7379C135.184 10.9984 135.8 10.4232 136.586 10.0124C137.385 9.58986 138.282 9.37858 139.28 9.37858C140.278 9.37858 141.17 9.58986 141.956 10.0124C142.743 10.4232 143.359 10.9984 143.805 11.7379C144.251 12.4773 144.474 13.3166 144.474 14.2556C144.474 15.1946 144.251 16.0339 143.805 16.7734C143.359 17.5128 142.743 18.0939 141.956 18.5164C141.17 18.9272 140.278 19.1327 139.28 19.1327ZM139.28 16.879C139.984 16.879 140.56 16.6443 141.006 16.1747C141.463 15.6935 141.692 15.0538 141.692 14.2556C141.692 13.4574 141.463 12.8236 141.006 12.3541C140.56 11.8729 139.984 11.6322 139.28 11.6322C138.576 11.6322 137.995 11.8729 137.537 12.3541C137.079 12.8236 136.85 13.4574 136.85 14.2556C136.85 15.0538 137.079 15.6935 137.537 16.1747C137.995 16.6443 138.576 16.879 139.28 16.879Z" fill="#FAFAFA"/>
<path d="M150.817 19.1327C149.82 19.1327 148.922 18.9272 148.124 18.5164C147.337 18.0939 146.721 17.5128 146.275 16.7734C145.829 16.0339 145.606 15.1946 145.606 14.2556C145.606 13.3166 145.829 12.4773 146.275 11.7379C146.721 10.9984 147.337 10.4232 148.124 10.0124C148.922 9.58986 149.82 9.37858 150.817 9.37858C151.815 9.37858 152.707 9.58986 153.494 10.0124C154.28 10.4232 154.896 10.9984 155.342 11.7379C155.788 12.4773 156.011 13.3166 156.011 14.2556C156.011 15.1946 155.788 16.0339 155.342 16.7734C154.896 17.5128 154.28 18.0939 153.494 18.5164C152.707 18.9272 151.815 19.1327 150.817 19.1327ZM150.817 16.879C151.522 16.879 152.097 16.6443 152.543 16.1747C153.001 15.6935 153.229 15.0538 153.229 14.2556C153.229 13.4574 153.001 12.8236 152.543 12.3541C152.097 11.8729 151.522 11.6322 150.817 11.6322C150.113 11.6322 149.532 11.8729 149.074 12.3541C148.617 12.8236 148.388 13.4574 148.388 14.2556C148.388 15.0538 148.617 15.6935 149.074 16.1747C149.532 16.6443 150.113 16.879 150.817 16.879Z" fill="#FAFAFA"/>
<path d="M161.245 19.1327C160.177 19.1327 159.344 18.851 158.745 18.2875C158.147 17.7124 157.847 16.9025 157.847 15.8578V5.92767H160.594V15.6994C160.594 16.0984 160.694 16.4095 160.893 16.6325C161.104 16.8438 161.398 16.9494 161.773 16.9494C161.914 16.9494 162.055 16.9318 162.196 16.8966C162.349 16.8614 162.466 16.8203 162.548 16.7734L162.671 18.9038C162.214 19.0564 161.738 19.1327 161.245 19.1327Z" fill="#FAFAFA"/>
</svg>
